<svg width="32" height="33" viewBox="0 0 32 33" fill="none" xmlns="http://www.w3.org/2000/svg">
<path d="M16.9257 7.3286H15.0801C14.9113 7.3286 14.7731 7.46673 14.7731 7.63556V18.1987C14.7731 18.2985 14.8192 18.3906 14.8998 18.4481L21.2423 23.0793C21.3804 23.1791 21.5722 23.1522 21.672 23.0141L22.7694 21.5177C22.873 21.3757 22.8423 21.1839 22.7041 21.0879L17.2326 17.132V7.63556C17.2326 7.46673 17.0945 7.3286 16.9257 7.3286ZM25.3593 10.214L31.3757 11.6835C31.5675 11.7296 31.7555 11.5838 31.7555 11.3881L31.7862 5.19141C31.7862 4.93434 31.4908 4.78853 31.2913 4.94968L25.2442 9.67298C25.1985 9.70834 25.1637 9.75587 25.1438 9.81012C25.1239 9.86437 25.1198 9.92314 25.1318 9.97965C25.1438 10.0362 25.1716 10.0881 25.2118 10.1296C25.2521 10.1711 25.3032 10.2003 25.3593 10.214ZM31.7939 21.7671L29.6184 21.0189C29.5425 20.9929 29.4595 20.9976 29.3871 21.032C29.3146 21.0664 29.2586 21.1278 29.2308 21.203C29.1579 21.3987 29.0812 21.5906 29.0006 21.7824C28.3176 23.3978 27.3392 24.852 26.0883 26.099C24.8514 27.3398 23.3854 28.3288 21.7718 29.0113C20.1001 29.718 18.3032 30.0808 16.4883 30.0779C14.6542 30.0779 12.8777 29.7211 11.2048 29.0113C9.5911 28.3288 8.12516 27.3398 6.8882 26.099C5.64118 24.852 4.66276 23.3978 3.97594 21.7824C3.27308 20.1098 2.91297 18.3132 2.91694 16.4989C2.91694 14.6649 3.27378 12.8845 3.98362 11.2116C4.6666 9.59624 5.64502 8.14203 6.89587 6.89502C8.13283 5.65422 9.59878 4.6652 11.2125 3.98277C12.8777 3.27293 14.658 2.91609 16.4921 2.91609C18.3262 2.91609 20.1027 3.27293 21.7756 3.98277C23.3893 4.6652 24.8552 5.65422 26.0922 6.89502C26.4836 7.29023 26.8519 7.70078 27.1896 8.13436L29.4841 6.33866C26.4644 2.47868 21.7641 -0.00383252 16.4844 4.44144e-06C7.29107 0.0038414 -0.0912348 7.47057 0.000852236 16.6678C0.0929393 25.7038 7.44072 32.9979 16.4921 32.9979C23.6097 32.9979 29.6721 28.4856 31.9819 22.1661C32.0395 22.005 31.9551 21.8246 31.7939 21.7671Z" fill="#FFBB00"/>
</svg>
