<svg width="34" height="34" viewBox="0 0 34 34" fill="none" xmlns="http://www.w3.org/2000/svg">
<path d="M16.1111 5.44446V8.11112H13.4445V9.8889H16.1111V12.5556H17.8889V9.8889H20.5556V8.11112H17.8889V5.44446H16.1111Z" fill="#FFBB00"/>
<path fill-rule="evenodd" clip-rule="evenodd" d="M1 3.66667C1 2.95942 1.28095 2.28115 1.78105 1.78105C2.28115 1.28095 2.95942 1 3.66667 1H30.3333C31.0406 1 31.7189 1.28095 32.219 1.78105C32.719 2.28115 33 2.95942 33 3.66667V30.3333C33 31.0406 32.719 31.7189 32.219 32.219C31.7189 32.719 31.0406 33 30.3333 33H3.66667C2.95942 33 2.28115 32.719 1.78105 32.219C1.28095 31.7189 1 31.0406 1 30.3333V3.66667ZM2.77778 3.66667C2.77778 3.43092 2.87143 3.20483 3.03813 3.03813C3.20483 2.87143 3.43092 2.77778 3.66667 2.77778H30.3333C30.5691 2.77778 30.7952 2.87143 30.9619 3.03813C31.1286 3.20483 31.2222 3.43092 31.2222 3.66667V26.7778H28.8524C28.8524 26.722 28.847 26.6663 28.8364 26.6116L27.6898 20.5964L29.4098 14.5778C29.4746 14.3511 29.4467 14.108 29.3323 13.9018C29.2179 13.6957 29.0262 13.5435 28.7996 13.4787C28.5729 13.4138 28.3297 13.4417 28.1236 13.5561C27.9175 13.6706 27.7653 13.8622 27.7004 14.0889L26.6347 17.8204H19.6667V19.5982H20.8293V21.1022H20.3502C20.1451 21.1021 19.9463 21.173 19.7874 21.3028C19.6286 21.4325 19.5195 21.6132 19.4787 21.8143C19.4379 22.0153 19.4679 22.2242 19.5635 22.4057C19.6592 22.5871 19.8146 22.7299 20.0036 22.8098L18.8196 26.5076C18.7918 26.5949 18.7777 26.6861 18.7778 26.7778H15.2222C15.2221 26.6857 15.2077 26.5943 15.1796 26.5067L13.9973 22.8098C14.1858 22.7295 14.3407 22.5866 14.4359 22.4053C14.5312 22.224 14.5608 22.0153 14.52 21.8146C14.4791 21.6139 14.3702 21.4335 14.2116 21.3039C14.0531 21.1742 13.8546 21.1033 13.6498 21.1031H13.1707V19.5982H14.3333V17.8204H7.36444L6.29867 14.0889C6.26931 13.9737 6.21712 13.8655 6.1452 13.7708C6.07328 13.6761 5.98309 13.5968 5.87997 13.5375C5.77685 13.4783 5.66289 13.4404 5.54485 13.426C5.42681 13.4116 5.30708 13.4211 5.19275 13.4538C5.07842 13.4865 4.97182 13.5418 4.87926 13.6165C4.78669 13.6911 4.71005 13.7836 4.65387 13.8884C4.59769 13.9932 4.56311 14.1082 4.55217 14.2266C4.54124 14.3451 4.55418 14.4645 4.59022 14.5778L6.30933 20.5964L5.16356 26.6116C5.15308 26.6663 5.14773 26.722 5.14756 26.7778H2.77778V3.66667ZM30.3333 31.2222C30.5691 31.2222 30.7952 31.1286 30.9619 30.9619C31.1286 30.7952 31.2222 30.5691 31.2222 30.3333V28.5556H2.77778V30.3333C2.77778 30.5691 2.87143 30.7952 3.03813 30.9619C3.20483 31.1286 3.43092 31.2222 3.66667 31.2222H30.3333ZM25.9049 20.7218L25.9769 21.1022H22.6071V19.5982H26.1271L25.9227 20.3111C25.8847 20.4447 25.8786 20.5854 25.9049 20.7218ZM27.0578 26.7778L26.3804 23.2222H21.7378L20.6 26.7778H27.0578ZM8.09511 20.7218L8.02311 21.1022H11.3929V19.5982H7.87289L8.07733 20.3111C8.11526 20.4447 8.12135 20.5854 8.09511 20.7218ZM6.94222 26.7778L7.61955 23.2222H12.2622L13.4 26.7778H6.94222Z" fill="#FFBB00" stroke="#FFBB00" stroke-width="0.5"/>
</svg>
