<svg width="31" height="32" viewBox="0 0 31 32" fill="none" xmlns="http://www.w3.org/2000/svg">
<path d="M31 4.92308C31 4.27024 30.7278 3.64413 30.2434 3.18251C29.7589 2.72088 29.1018 2.46154 28.4167 2.46154H23.25V0H20.6667V2.46154H10.3333V0H7.75V2.46154H2.58333C1.89819 2.46154 1.24111 2.72088 0.756641 3.18251C0.272172 3.64413 0 4.27024 0 4.92308V29.5385C0 30.1913 0.272172 30.8174 0.756641 31.279C1.24111 31.7407 1.89819 32 2.58333 32H7.75V29.5385H2.58333V4.92308H7.75V7.38462H10.3333V4.92308H20.6667V7.38462H23.25V4.92308H28.4167V12.3077H31V4.92308Z" fill="#FFBB00"/>
</svg>
