<svg width="32" height="35" viewBox="0 0 32 35" fill="none" xmlns="http://www.w3.org/2000/svg">
<path d="M28.0552 2.3118C24.342 -1.32428 17.5503 -0.593953 12.9009 3.95891C10.362 6.44511 8.90211 9.97241 8.87038 12.4431C8.83864 14.8982 9.28296 18.4877 6.72816 20.9894L0 27.5778L2.2533 29.7843L8.98146 23.1959C11.5363 20.6942 15.2018 21.1292 17.709 21.0982C20.2162 21.0671 23.8342 19.6375 26.3731 17.1513C31.0067 12.5985 31.7683 5.94787 28.0552 2.3118ZM13.4563 16.5919C11.0285 14.2145 11.7901 9.42855 15.1384 6.14987C18.4866 2.87119 23.3581 2.12533 25.8019 4.50276C28.2297 6.88019 27.468 11.6661 24.1198 14.9448C20.7716 18.2235 15.9 18.9694 13.4563 16.5919ZM25.6432 24.8585C26.4842 24.8585 27.2935 25.1849 27.8806 25.7753C29.1183 26.9874 29.1183 28.9608 27.8806 30.1728C27.2935 30.7477 26.4842 31.0741 25.6432 31.0741C24.8022 31.0741 23.9929 30.7477 23.4057 30.1573C22.168 28.9452 22.168 26.9718 23.4057 25.7598C23.9929 25.1849 24.8022 24.8585 25.6432 24.8585ZM25.6432 21.7508C24.3864 21.7483 23.1572 22.1115 22.1115 22.7941C21.0657 23.4768 20.2506 24.4482 19.7695 25.5851C19.2885 26.7221 19.1631 27.9734 19.4093 29.1802C19.6555 30.387 20.2622 31.4951 21.1524 32.3638C22.3902 33.5758 24.0246 34.1818 25.6432 34.1818C26.9 34.1843 28.1292 33.8211 29.1749 33.1385C30.2206 32.4558 31.0357 31.4844 31.5168 30.3475C31.9979 29.2105 32.1233 27.9593 31.8771 26.7524C31.6309 25.5456 31.0242 24.4375 30.1339 23.5688C29.5441 22.9917 28.8439 22.534 28.0733 22.2221C27.3028 21.9101 26.477 21.75 25.6432 21.7508Z" fill="#FFBB00"/>
</svg>
