<svg width="32" height="23" viewBox="0 0 32 23" fill="none" xmlns="http://www.w3.org/2000/svg">
<path d="M2.71017 8.58839C6.16077 5.26159 10.8416 3.21625 16.0025 3.21625C21.1634 3.21625 25.8442 5.26159 29.2948 8.58839C29.9349 9.20149 30.9451 9.18139 31.5552 8.54317C32.1653 7.90494 32.1453 6.88479 31.5102 6.27169C27.4895 2.38706 22.0236 0 16.0025 0C9.98145 0 4.51549 2.38706 0.489779 6.26666C-0.145332 6.88479 -0.165336 7.89992 0.444771 8.54317C1.05488 9.18642 2.07006 9.20652 2.70517 8.58839H2.71017ZM16.0025 11.2569C18.843 11.2569 21.4335 12.3172 23.4138 14.0711C24.0789 14.6591 25.0891 14.5937 25.6742 13.9304C26.2593 13.267 26.1943 12.2469 25.5342 11.6589C22.9937 9.40753 19.6531 8.04063 16.0025 8.04063C12.3519 8.04063 9.01128 9.40753 6.47583 11.6589C5.81071 12.2469 5.7507 13.262 6.33581 13.9304C6.92091 14.5988 7.93109 14.6591 8.5962 14.0711C10.5715 12.3172 13.162 11.2569 16.0075 11.2569H16.0025ZM19.2031 19.2975C19.2031 18.4445 18.8659 17.6264 18.2656 17.0233C17.6654 16.4201 16.8513 16.0813 16.0025 16.0813C15.1537 16.0813 14.3396 16.4201 13.7394 17.0233C13.1391 17.6264 12.8019 18.4445 12.8019 19.2975C12.8019 20.1505 13.1391 20.9686 13.7394 21.5717C14.3396 22.1749 15.1537 22.5138 16.0025 22.5138C16.8513 22.5138 17.6654 22.1749 18.2656 21.5717C18.8659 20.9686 19.2031 20.1505 19.2031 19.2975Z" fill="#FFBB00"/>
</svg>
