<svg width="36" height="39" viewBox="0 0 36 39" fill="none" xmlns="http://www.w3.org/2000/svg">
<path d="M34 26.4993V12.4988C33.9991 11.886 33.8347 11.2841 33.523 10.7526C33.2113 10.2211 32.7632 9.77842 32.223 9.46849L19.7769 2.46826C19.2372 2.16155 18.6241 2 18 2C17.3759 2 16.7628 2.16155 16.2231 2.46826L3.77696 9.46849C3.23485 9.7763 2.78518 10.2185 2.47323 10.7505C2.16128 11.2824 1.99807 11.8855 2.00002 12.4988V26.503C2.00123 27.1155 2.16581 27.7171 2.47746 28.2482C2.78911 28.7794 3.23704 29.2217 3.77696 29.5315L16.2231 36.5317C16.7628 36.8385 17.3759 37 18 37C18.6241 37 19.2372 36.8385 19.7769 36.5317L32.223 29.5315C32.7654 29.2235 33.2153 28.7811 33.5272 28.2487C33.8392 27.7164 34.0023 27.113 34 26.4993Z" stroke="#FFBB00" stroke-width="2.5" stroke-linecap="round" stroke-linejoin="round"/>
<path d="M12.3525 11.2093H23.6466M12.3525 16.3268H23.6466M20.3525 29.6309L12.3525 21.4443H15.1761C21.4518 21.4443 21.4518 11.2093 15.1761 11.2093" stroke="#FFBB00" stroke-width="2.5" stroke-linecap="round" stroke-linejoin="round"/>
</svg>
