<svg width="36" height="36" viewBox="0 0 36 36" fill="none" xmlns="http://www.w3.org/2000/svg">
<path d="M2 21.5581C3.47575 22.6996 5.69293 23.3664 8.22305 23.3362C10.7532 23.3664 12.9703 22.6996 14.4461 21.5581C15.9218 20.4167 18.139 19.7499 20.6691 19.7801C23.1993 19.7499 25.4164 20.4167 26.8922 21.5581M10.8901 2C10.3273 2.40391 9.8714 2.93874 9.56162 3.55829C9.25184 4.17785 9.09755 4.8635 9.11205 5.55603C9.09755 6.24856 9.25184 6.93421 9.56162 7.55376C9.8714 8.17331 10.3273 8.70814 10.8901 9.11205M18.0021 2C17.4394 2.40391 16.9835 2.93874 16.6737 3.55829C16.3639 4.17785 16.2096 4.8635 16.2241 5.55603C16.2096 6.24856 16.3639 6.93421 16.6737 7.55376C16.9835 8.17331 17.4394 8.70814 18.0021 9.11205" stroke="#FFBB00" stroke-width="2.5" stroke-linecap="round" stroke-linejoin="round"/>
<path d="M2 14.446H26.8922V23.3361C26.8922 26.1655 25.7682 28.8789 23.7676 30.8796C21.7669 32.8802 19.0535 34.0042 16.2241 34.0042H12.6681C9.83873 34.0042 7.12526 32.8802 5.12461 30.8796C3.12396 28.8789 2 26.1655 2 23.3361V14.446Z" stroke="#FFBB00" stroke-width="2.5" stroke-linecap="round" stroke-linejoin="round"/>
<path d="M26.4404 26.405C27.2345 26.7695 28.1059 26.9334 28.9782 26.8823C29.8504 26.8311 30.6967 26.5664 31.4427 26.1116C32.1887 25.6567 32.8115 25.0256 33.2565 24.2736C33.7014 23.5217 33.9548 22.6719 33.9944 21.7991C34.034 20.9263 33.8586 20.0571 33.4835 19.2679C33.1085 18.4788 32.5454 17.7938 31.8436 17.2733C31.1419 16.7527 30.323 16.4126 29.459 16.2826C28.595 16.1527 27.7123 16.237 26.8885 16.5281" stroke="#FFBB00" stroke-width="2.5" stroke-linecap="round" stroke-linejoin="round"/>
</svg>
