<svg width="36" height="20" viewBox="0 0 36 20" fill="none" xmlns="http://www.w3.org/2000/svg">
<path d="M11.3087 2H7.23601C7.00455 2 6.78257 2.10114 6.6189 2.28118C6.45523 2.46121 6.36328 2.70539 6.36328 2.96V17.04C6.36328 17.1661 6.38586 17.2909 6.42971 17.4074C6.47357 17.5238 6.53786 17.6297 6.6189 17.7188C6.69994 17.808 6.79615 17.8787 6.90203 17.9269C7.00791 17.9752 7.1214 18 7.23601 18H11.3087C11.4233 18 11.5368 17.9752 11.6427 17.9269C11.7486 17.8787 11.8448 17.808 11.9258 17.7188C12.0069 17.6297 12.0712 17.5238 12.115 17.4074C12.1589 17.2909 12.1815 17.1661 12.1815 17.04V2.96C12.1815 2.70539 12.0895 2.46121 11.9258 2.28118C11.7622 2.10114 11.5402 2 11.3087 2ZM28.7633 2H24.6906C24.4591 2 24.2371 2.10114 24.0734 2.28118C23.9098 2.46121 23.8178 2.70539 23.8178 2.96V17.04C23.8178 17.1661 23.8404 17.2909 23.8843 17.4074C23.9281 17.5238 23.9924 17.6297 24.0734 17.7188C24.1545 17.808 24.2507 17.8787 24.3566 17.9269C24.4625 17.9752 24.5759 18 24.6906 18H28.7633C28.8779 18 28.9914 17.9752 29.0973 17.9269C29.2031 17.8787 29.2994 17.808 29.3804 17.7188C29.4614 17.6297 29.5257 17.5238 29.5696 17.4074C29.6134 17.2909 29.636 17.1661 29.636 17.04V2.96C29.636 2.70539 29.5441 2.46121 29.3804 2.28118C29.2167 2.10114 28.9947 2 28.7633 2Z" stroke="#FFBB00" stroke-width="2.5" stroke-linecap="round" stroke-linejoin="round"/>
<path d="M12.1818 9.99995H23.8182M2 13.84V6.15995C2 5.90534 2.09195 5.66116 2.25562 5.48113C2.41928 5.30109 2.64127 5.19995 2.87273 5.19995H5.49091C5.72237 5.19995 5.94435 5.30109 6.10802 5.48113C6.27169 5.66116 6.36364 5.90534 6.36364 6.15995V13.84C6.36364 14.0946 6.27169 14.3387 6.10802 14.5188C5.94435 14.6988 5.72237 14.8 5.49091 14.8H2.87273C2.64127 14.8 2.41928 14.6988 2.25562 14.5188C2.09195 14.3387 2 14.0946 2 13.84ZM34 13.84V6.15995C34 5.90534 33.9081 5.66116 33.7444 5.48113C33.5807 5.30109 33.3587 5.19995 33.1273 5.19995H30.5091C30.2776 5.19995 30.0556 5.30109 29.892 5.48113C29.7283 5.66116 29.6364 5.90534 29.6364 6.15995V13.84C29.6364 14.0946 29.7283 14.3387 29.892 14.5188C30.0556 14.6988 30.2776 14.8 30.5091 14.8H33.1273C33.3587 14.8 33.5807 14.6988 33.7444 14.5188C33.9081 14.3387 34 14.0946 34 13.84Z" stroke="#FFBB00" stroke-width="2.5" stroke-linecap="round" stroke-linejoin="round"/>
</svg>
